<svg width="726" height="726" viewBox="0 0 726 726" fill="none" xmlns="http://www.w3.org/2000/svg">
<path d="M135.824 200.358C173.085 163.097 228.596 151.066 288.29 161.82C347.983 172.574 411.808 206.107 465.594 259.893C519.38 313.68 552.914 377.505 563.668 437.198C574.422 496.892 562.391 552.403 525.13 589.664C487.869 626.925 432.358 638.955 372.664 628.201C312.972 617.448 249.146 583.914 195.36 530.128C141.573 476.341 108.04 412.516 97.2866 352.824C86.5326 293.13 98.5632 237.619 135.824 200.358Z" stroke="#EBECF0"/>
<path d="M168.091 168.091C205.352 130.83 260.863 118.799 320.557 129.553C380.249 140.307 444.074 173.84 497.861 227.626C551.647 281.413 585.181 345.238 595.935 404.931C606.689 464.625 594.658 520.136 557.397 557.397C520.136 594.658 464.625 606.688 404.931 595.935C345.238 585.181 281.413 551.647 227.627 497.861C173.84 444.074 140.307 380.249 129.553 320.557C118.799 260.863 130.83 205.352 168.091 168.091Z" stroke="#EBECF0"/>
<path d="M200.358 135.825C237.619 98.5636 293.13 86.5325 352.824 97.2865C412.516 108.04 476.341 141.573 530.128 195.36C583.914 249.146 617.448 312.972 628.201 372.664C638.956 432.358 626.924 487.869 589.663 525.13C552.403 562.391 496.892 574.422 437.198 563.668C377.505 552.914 313.68 519.38 259.893 465.594C206.107 411.807 172.574 347.982 161.82 288.29C151.066 228.596 163.097 173.085 200.358 135.825Z" stroke="#EBECF0"/>
</svg>
