<svg width="1728" height="719" viewBox="0 0 1728 719" fill="none" xmlns="http://www.w3.org/2000/svg">
<path d="M-187.63 488.133C-161.611 488.133 36.1265 711.889 297.795 711.889C661.305 711.889 857.027 -103.233 1369 124.623C1774.88 305.263 1953.29 324.591 2027.63 198.96" stroke="#D3D5D6"/>
<path d="M-187.63 294.856C-164.585 311.953 36.1265 711.889 297.795 711.889C661.305 711.889 916.497 -14.0279 1428.47 213.828C1834.35 394.468 1898.28 365.476 2027.63 273.298" stroke="#D3D5D6"/>
<path d="M-187.63 607.073C-161.611 607.073 36.1265 717.836 297.795 717.836C661.305 717.836 861.272 -236.27 1339.26 56.2321C1687.91 269.581 1893.82 354.326 2027.63 258.43" stroke="#D3D5D6"/>
</svg>
