<svg width="1169" height="321" viewBox="0 0 1169 321" fill="none" xmlns="http://www.w3.org/2000/svg">
<g opacity="0.25">
<path d="M-0.333252 198.184C13.5221 198.184 118.823 317.34 258.168 317.34C451.748 317.34 555.975 -116.735 828.614 4.60439C1044.76 100.8 1139.77 111.093 1179.35 44.1913" stroke="#BECED8"/>
<path d="M-0.333252 95.258C11.9387 104.363 118.823 317.34 258.168 317.34C451.748 317.34 587.644 -69.231 860.283 52.1084C1076.43 148.304 1110.47 132.865 1179.35 83.7779" stroke="#BECED8"/>
<path d="M-0.333252 261.522C13.5221 261.522 118.823 320.507 258.168 320.507C451.748 320.507 558.236 -187.581 812.779 -31.8157C998.441 81.7983 1108.1 126.927 1179.35 75.8604" stroke="#BECED8"/>
</g>
</svg>
