<?xml version="1.0" encoding="UTF-8"?>
<svg width="801px" height="245px" viewBox="0 0 801 245" version="1.1" xmlns="http://www.w3.org/2000/svg" xmlns:xlink="http://www.w3.org/1999/xlink">
    <title>square63-logo</title>
    <g id="Page-1" stroke="none" stroke-width="1" fill="none" fill-rule="evenodd">
        <g id="square63-logo" transform="translate(0.008000, 0.000000)" fill-rule="nonzero">
            <path d="M149.373144,46.365597 L81.403699,46.365597 C75.6975975,46.365597 69.6558138,50.8968933 67.8106387,56.6029948 L52.8748494,100.40514 C51.0288455,106.111075 53.8817304,110.642372 59.588495,110.642372 L90.9718872,110.642372 C93.824938,110.642372 95.3352596,112.991982 94.3283785,115.677108 L82.9141863,149.577538 C81.9071395,152.262996 78.885999,154.612275 76.0332798,154.612275 L34.5804137,154.612275 L30.7203162,165.856885 L99.8644009,165.856885 C105.570502,165.856885 111.612286,161.325257 113.45829,155.619156 L129.066107,109.634827 C130.912277,103.928726 128.059226,99.3974296 122.352461,99.3974296 L90.9697322,99.3974296 C88.1166815,99.3974296 86.6063599,97.0479852 87.613241,94.3626927 L98.3540793,62.6441154 C99.3609604,59.7910647 102.382267,57.6093785 105.067725,57.6093785 L145.681137,57.6093785 L149.373144,46.365597 Z M219.694024,99.3979269 L153.905601,99.3979269 C148.199665,99.3979269 142.157882,103.929223 140.143954,109.635325 L124.704061,155.619653 C122.690133,161.325754 125.710942,165.857382 131.417706,165.857382 L166.156927,165.857382 L154.912648,199.422295 L185.960026,199.422295 L219.694024,99.3979269 Z M185.960026,107.454302 L168.842717,157.800842 L160.114977,157.800842 C157.262092,157.800842 155.751605,155.619156 156.758486,152.766105 L170.352707,112.488375 C171.191498,109.802917 174.380894,107.453639 177.064695,107.453639 L185.960026,107.453639 L185.960026,107.454302 Z M307.468724,99.3979269 L276.420185,99.3979269 L258.464084,152.766105 C257.456208,155.619156 254.435896,157.800842 251.583011,157.800842 L247.891335,157.800842 C245.03845,157.800842 243.526637,155.619156 244.534512,152.766105 L262.492271,99.3979269 L231.443732,99.3979269 L212.479755,155.619156 C210.465662,161.325257 213.485973,165.856885 219.191743,165.856885 L284.980497,165.856885 L307.468724,99.3979269 Z M392.223112,109.635325 C394.069779,103.929223 391.047809,99.3979269 385.509466,99.3979269 L329.792838,99.3979269 C324.085411,99.3979269 318.044787,103.929223 316.030694,109.635325 L312.506444,120.040481 L343.72241,120.040481 L346.238784,112.488375 C347.077575,109.635325 350.099544,107.453639 352.952429,107.453639 L356.811532,107.453639 C359.49699,107.453639 361.007146,109.803083 360.168355,112.488375 L356.476679,123.564233 C355.468803,126.249691 352.448491,128.59897 349.595606,128.59897 L319.889797,128.59897 C314.184027,128.59897 308.143403,133.130266 306.12931,138.836202 L300.42354,155.618658 C298.576873,161.32476 301.597185,165.856388 307.302955,165.856388 L373.091708,165.856388 L392.223112,109.635325 Z M351.944554,136.655676 L344.728628,157.801505 L336.002546,157.801505 C333.148004,157.801505 331.637848,155.619819 332.645723,152.766768 L336.3374,141.690413 C337.176191,139.004955 340.365587,136.655676 343.051045,136.655676 L351.944554,136.655676 Z M475.971282,109.635325 C477.816291,103.929223 474.79598,99.3979269 469.09021,99.3979269 L406.99479,99.3979269 L384.506564,165.856885 L415.553445,165.856885 L435.35787,107.453639 L442.069858,107.453639 C444.922743,107.453639 446.432899,109.635325 445.426681,112.488375 L442.573796,121.047362 C440.559703,126.753298 443.580014,131.284594 449.287442,131.284594 L468.586272,131.284594 L475.971282,109.635325 Z M561.227951,109.635325 C563.074618,103.929223 560.054306,99.3979269 554.515963,99.3979269 L498.797677,99.3979269 C493.091907,99.3979269 487.049626,103.929223 485.035533,109.635325 L469.595805,155.619653 C467.581712,161.325754 470.602023,165.857382 476.307793,165.857382 L532.026079,165.857382 C537.564422,165.857382 543.77413,161.325754 545.620797,155.619653 L549.145046,145.213668 L518.096507,145.213668 L515.580134,152.765773 C514.572258,155.618824 511.551946,157.80051 508.699061,157.80051 L505.007385,157.80051 C502.1545,157.80051 500.642687,155.618824 501.650562,152.765773 L507.021479,136.654682 L541.92912,136.654682 C547.465806,136.654682 553.675514,132.123385 555.522181,126.41745 L561.227951,109.635325 Z M529.173194,112.488375 L525.481518,123.564233 C524.4753,126.249691 521.45333,128.59897 518.600445,128.59897 L509.705279,128.59897 L515.243622,112.487878 C516.084071,109.80242 519.27181,107.453141 521.957268,107.453141 L525.816371,107.453141 C528.501829,107.453639 530.011985,109.803083 529.173194,112.488375 L529.173194,112.488375 Z" id="Square" fill="#645E5E"></path>
            <path d="M675.857233,46.365597 L602.5177,46.365597 C596.81193,46.365597 590.769649,50.8968933 588.92464,56.6029948 L555.359727,155.619156 C553.345633,161.325257 556.365945,165.856885 562.071715,165.856885 L628.530176,165.856885 C634.068519,165.856885 640.278227,161.325257 642.124894,155.619156 L657.732048,109.634827 C659.578715,103.928726 656.558403,99.3974296 651.02006,99.3974296 L607.049825,99.3974296 L619.467583,62.6441154 C620.475459,59.7910647 623.49577,57.6093785 626.181229,57.6093785 L672.165557,57.6093785 L675.857233,46.365597 Z M622.99349,115.676943 L611.412866,149.577538 C610.574075,152.262996 607.552105,154.612275 604.69922,154.612275 L593.455107,154.612275 C590.602222,154.612275 589.092066,152.262664 590.098284,149.577538 L603.189065,110.642206 L619.636667,110.642206 C622.322126,110.642206 623.832282,112.991816 622.99349,115.676943 Z M767.15784,56.602829 C769.170276,50.8967276 766.149965,46.3654312 760.444195,46.3654312 L692.977858,46.3654312 L689.118755,57.6097101 L729.060802,57.6097101 C731.913687,57.6097101 733.423843,59.7913963 732.417625,62.644447 L721.844877,94.1954317 C720.837001,97.0484825 717.649263,99.3979269 714.796378,99.3979269 L681.901172,99.3979269 L678.209496,110.642206 L710.935617,110.642206 C713.788502,110.642206 715.467742,112.991816 714.459866,115.844701 L703.048327,149.577538 C702.040451,152.262996 699.020139,154.612275 696.167254,154.612275 L654.211113,154.612275 L650.350353,165.856885 L719.99821,165.856885 C725.70398,165.856885 731.746261,161.325257 733.59127,155.619156 L746.010685,119.033931 C748.696144,111.314068 744.50053,105.104526 736.780666,105.104526 C744.50053,105.104526 752.891758,98.7272254 755.577216,91.1751201 L767.15784,56.602829 Z" id="_63" fill="#645E5E"></path>
            <polygon id="Rectangle_1_copy_9" fill="#e5922f" points="54.639958 0 177.901994 0.262909677 177.901994 27.1158344 55.9442287 27.1158344"></polygon>
            <polygon id="Rectangle_1_copy_13" fill="#e5922f" points="23.7401139 64.047516 54.639958 0 69.1271763 8.08604739 38.0426656 71.8708195"></polygon>
            <polygon id="Rectangle_1_copy_9-2" fill="#e5922f" points="15.6638469 190.471928 122.612553 190.558128 121.958263 210.611207 15.6638469 210.611207"></polygon>
            <polygon id="Rectangle_1_copy_9-3" fill="#e5922f" points="122.612553 190.558128 140.81681 238.321158 114.590658 244.08992 96.386401 196.328548"></polygon>
            <polygon id="Rectangle_1_copy_9-4" fill="#e5922f" points="217.063269 194.947692 198.205385 238.321158 215.480175 244.08992 234.802213 200.804311"></polygon>
            <polygon id="Rectangle_1_copy_13-2" fill="#e5922f" points="759.066654 145.80364 739.742959 187.972131 750.305761 193.740893 769.627799 151.573065"></polygon>
            <polygon id="Rectangle_1_copy_9-5" fill="#e5922f" points="173.42623 59.5632981 561.678842 59.5632981 561.678842 75.2274765 172.754866 74.5513047"></polygon>
            <polygon id="Rectangle_1_copy_9-6" fill="#e5922f" points="217.063269 194.947692 425.174679 194.947692 412.867987 217.324853 217.063269 217.324853"></polygon>
            <polygon id="Rectangle_1_copy_16" fill="#e5922f" points="441.958793 178.163578 749.650973 178.163578 750.305761 193.740893 439.720911 193.828751"></polygon>
            <polygon id="Rectangle_1_copy_13-3" fill="#e5922f" points="411.999357 203.062085 441.958793 178.163578 451.051224 188.365004 418.631776 217.367953 411.700973 217.316564"></polygon>
            <polygon id="Rectangle_1_copy_9-7" fill="#e5922f" points="116.36389 228.514262 213.706446 228.514262 215.480175 244.08992 114.590658 244.08992"></polygon>
            <polygon id="Rectangle_1_copy_9-8" fill="#e5922f" points="177.901994 0.262909677 194.369489 68.7595006 172.754866 74.5513047 156.959232 6.73022251"></polygon>
            <polygon id="Rectangle_1_copy_9-9" fill="#e5922f" points="561.678842 75.2274765 594.472929 21.1648921 574.961915 10.2092171 542.310389 63.2765243"></polygon>
            <polygon id="Rectangle_2_copy" fill="#e5922f" points="575.106134 10.332715 788.812248 10.332715 788.812248 24.8781183 575.106134 24.8781183"></polygon>
            <polygon id="Rectangle_3_copy_2" fill="#e5922f" points="-2.62186106e-14 55.0877001 38.0426656 55.0877001 38.0426656 71.8708195 -2.62186106e-14 71.8708195"></polygon>
            <polygon id="Rectangle_3_copy_2-2" fill="#e5922f" points="759.066654 145.80364 800 145.716777 800 165.857714 759.721442 165.857714"></polygon>
        </g>
    </g>
</svg>