<?xml version="1.0" encoding="UTF-8"?>
<svg width="758px" height="177px" viewBox="0 0 758 177" version="1.1" xmlns="http://www.w3.org/2000/svg" xmlns:xlink="http://www.w3.org/1999/xlink">
    <title>Shape 2</title>
    <g id="Page-1" stroke="none" stroke-width="1" fill="none" fill-rule="evenodd">
        <g id="Shape-2" transform="translate(0.0766, 0.4066)" fill="#D92CF9">
            <path d="M125.574138,0.101887041 C129.558302,-0.222384976 141.995156,0.277753486 145.238461,0.892993907 C153.243598,2.41093751 158.774334,6.14094211 160.050973,10.8817406 C161.701547,17.0113581 157.474325,23.4044832 145.439451,32.9783953 C143.149828,34.7995771 137.492815,39.4853077 131.434433,44.5677239 L130.624531,45.2475134 C129.677477,46.0428382 128.723902,46.8451077 127.774968,47.6450329 L126.962993,48.3298922 C126.422782,48.7857934 125.885128,49.2400625 125.352114,49.6909661 C117.35691,56.4539365 110.257982,62.4415755 109.576719,62.99722 C108.895455,63.5522802 108.550149,64.012688 108.810151,64.0196993 C111.734442,64.1003291 129.547201,68.5694402 133.460083,70.2042386 C135.288276,70.9684689 135.368322,70.9322439 138.151218,68.1066953 C145.372844,60.7752263 156.022988,54.8004414 167.933996,51.3982144 C172.205623,50.1782505 184.876187,49.6862919 189.372759,50.5656241 C197.288501,52.1133657 207.641835,57.2129083 209.023059,60.2429528 C212.727939,68.374877 200.98754,84.5201178 186.328107,91.4531119 C173.633588,97.4565263 158.822829,95.6920191 140.473123,85.9907352 C129.533178,80.2070078 118.935618,76.5056327 106.959172,74.2859761 C104.272096,73.7881747 101.277108,73.3809358 100.302539,73.3809358 C100.167677,73.3809358 100.045652,73.3769141 99.9283855,73.3757155 L99.8124063,73.3757115 C98.0492059,73.3978526 96.7717719,74.6201574 66.8581165,101.71822 C64.5219472,103.834432 61.7933481,106.298262 59.0271861,108.790522 L57.9195591,109.788186 C53.487767,113.778854 49.0809417,117.733353 46.1526179,120.344288 C41.1494805,124.804051 36.7937185,128.714012 36.4723679,129.033025 C35.0039006,130.491723 48.0357907,128.591179 62.2291672,125.574587 L63.3518669,125.334157 C64.6639313,125.051046 65.9828711,124.758968 67.2982639,124.459675 L68.4246316,124.201413 C70.8621596,123.638193 73.2771833,123.051819 75.602944,122.453517 C128.193438,108.92407 160.823967,107.3068 179.992241,117.279187 C185.316729,120.04923 189.594198,124.329036 190.184899,127.478857 C191.271649,133.271932 184.952727,137.00369 180.816067,133.011346 C178.12198,130.411327 170.101652,126.664379 163.708527,125.019063 C159.099775,123.832403 156.033505,123.485929 147.776547,123.2195 C129.052905,122.614776 110.567063,125.241088 79.1243629,132.973368 C61.064141,137.414598 51.9583147,139.353511 43.4851799,140.270106 L42.7993912,140.342213 L42.1153896,140.410016 C41.6597653,140.453821 41.2046753,140.494873 40.7488053,140.533405 L40.0642509,140.589344 C38.2363366,140.733629 36.3854279,140.839471 34.4274092,140.921831 C21.2917633,141.474554 12.6930043,139.115256 6.4050485,133.233955 C2.06564621,129.174419 0.345543836,125.224144 0.0586653492,118.656321 C-0.124796657,114.465324 0.0960588791,112.336814 1.09224589,108.690945 C8.65391875,81.0267441 43.6133635,62.2797316 87.6384022,62.2797316 L92.8758335,62.2797316 L98.5619871,57.2497176 C100.859829,55.2175891 105.616662,51.0238701 110.463067,46.7571511 L111.271225,46.0457134 C111.405921,45.9271472 111.540584,45.8086142 111.675164,45.6901591 L112.481239,44.9807226 C113.55359,44.0370098 114.614114,43.1040171 115.636808,42.2046646 C134.316629,25.7772195 143.686629,16.2547234 143.686629,13.6979408 C143.686629,12.3535265 134.606246,11.4649555 125.020393,11.5538016 L124.220585,11.5634792 C123.55341,11.5734479 122.884947,11.5882001 122.218065,11.6079105 L121.418752,11.6339541 C119.423285,11.7050687 117.452402,11.8214356 115.583639,11.9877711 C100.190943,13.3584777 83.5356308,16.3493758 52.2477633,23.3606626 C28.2866905,28.7307241 21.1492005,28.5443407 14.7081649,22.3837566 C12.5183064,20.2891347 12.2419448,18.1208942 13.9024512,16.0700928 C14.9225935,14.8103983 15.5799016,14.6906222 23.6890391,14.2816304 C29.9997816,13.9632011 36.3858953,13.1066556 46.9892981,11.1569336 C79.4568147,5.18682283 98.9213156,2.2701275 115.057208,0.95784831 C119.395442,0.604946872 124.12806,0.219910369 125.574138,0.101887041 Z M70.3602543,73.6654772 C58.6397198,75.1460273 47.3240871,78.1784088 38.761553,82.1345274 C23.4635094,89.2019046 11.8276946,102.484788 10.7169899,114.148063 C10.3448074,118.056271 11.5297149,120.528334 14.7029065,122.462865 C19.7662241,125.550168 24.5374048,122.934958 41.5339327,107.754938 C61.7942146,89.6599753 80.0007737,73.2208448 80.0007737,73.0227759 C80.0007737,72.6523463 76.5699174,72.8813816 70.3602543,73.6654772 Z M174.765911,61.15851 C165.415776,62.3597772 153.609353,67.5568935 147.09353,73.3388681 L144.657692,75.5006815 L146.663505,76.7405108 C149.606492,78.5593554 157.009827,81.4152863 161.451477,82.4453612 C166.488503,83.6133247 174.600562,83.6068977 179.032863,82.4307543 C185.948914,80.5949657 194.13167,74.7820246 197.222479,69.5083684 C198.050395,68.0955941 198.575073,66.5414255 198.388105,66.0547253 C198.201722,65.5680252 196.794206,64.6308498 195.261071,63.9712046 C189.209162,61.3682643 181.435398,60.3013802 174.765911,61.15851 Z M445.881407,6.93938232 C444.155407,7.80738232 443.276407,9.57738232 442.326407,14.0933823 C441.632407,17.3933823 439.409407,24.1433823 437.385407,29.0933823 C428.719407,50.2913823 414.081407,93.2353823 409.482407,110.952382 C405.101407,127.832382 406.320407,132.593382 415.023407,132.593382 C419.618407,132.593382 420.767407,131.196382 421.900407,124.233382 C423.110407,116.802382 427.294407,99.8713823 430.214407,90.5933823 L432.575407,83.0933823 L437.272407,92.3683823 C450.467407,118.427382 463.595407,132.593382 474.548407,132.593382 C477.643407,132.593382 480.923407,130.493382 480.923407,128.512382 C480.923407,127.996382 477.833407,124.241382 474.057407,120.168382 C466.637407,112.165382 456.801407,98.5063823 449.943407,86.6803823 L445.645407,79.2683823 L452.034407,73.2303823 C465.999407,60.0323823 472.061407,54.4413823 487.423407,40.5913823 C503.944407,25.6963823 509.923407,19.4263823 509.923407,16.9983823 C509.923407,14.6463823 506.090407,11.5933823 503.135407,11.5933823 C501.097407,11.5933823 499.014407,12.9663823 495.385407,16.6983823 C492.656407,19.5063823 484.348407,27.0923823 476.923407,33.5573823 C461.379407,47.0913823 444.735407,62.3113823 440.517407,66.8483823 L437.610407,69.9743823 L438.348407,67.0343823 C438.754407,65.4163823 442.847407,53.7033823 447.445407,41.0053823 C452.042407,28.3063823 456.094407,16.7613823 456.448407,15.3493823 C457.793407,9.99038232 450.828407,4.44738232 445.881407,6.93938232 M666.423407,6.44338232 C658.120407,9.14338232 651.481407,17.4143823 641.824407,37.0933823 C631.983407,57.1443823 624.710407,78.7293823 622.398407,94.7403823 C621.837407,98.6213823 620.667407,100.548382 615.297407,106.431382 C608.504407,113.875382 605.747407,115.522382 603.375407,113.553382 C599.911407,110.678382 602.123407,99.4173823 609.040407,84.7143823 C611.726407,79.0063823 613.923407,73.5643823 613.923407,72.6193823 C613.923407,70.3523823 610.787407,67.5933823 608.211407,67.5933823 C606.993407,67.5933823 605.942407,66.7733823 605.630407,65.5803823 C605.000407,63.1723823 599.304407,60.5933823 594.615407,60.5933823 C583.333407,60.5933823 564.650407,78.2363823 556.717407,96.3813823 C553.695407,103.293382 544.409407,113.593382 541.200407,113.593382 C538.693407,113.593382 538.655407,113.485382 539.193407,107.843382 C539.494407,104.680382 541.131407,97.0233823 542.832407,90.8263823 C546.524407,77.3693823 546.653407,73.9753823 543.641407,69.4913823 C540.909407,65.4233823 535.920407,64.5093823 530.826407,67.1433823 C526.728407,69.2633823 519.043407,76.4033823 512.586407,84.0933823 C509.815407,87.3933823 507.906407,89.1933823 508.344407,88.0933823 C508.781407,86.9933823 510.611407,81.8183823 512.411407,76.5933823 C517.701407,61.2323823 525.832407,39.8893823 530.017407,30.3783823 C532.157407,25.5153823 534.187407,19.7933823 534.528407,17.6613823 C535.074407,14.2483823 534.838407,13.5833823 532.543407,12.0793823 C528.181407,9.22238232 525.186407,10.7613823 522.224407,17.3803823 C506.122407,53.3743823 488.450407,103.054382 487.207407,115.825382 C486.555407,122.512382 487.540407,124.243382 492.528407,125.179382 C497.153407,126.046382 499.974407,123.965382 502.323407,117.954382 C504.897407,111.366382 513.841407,96.1423823 518.887407,89.7583823 C522.623407,85.0313823 530.149407,78.5933823 531.939407,78.5933823 C532.739407,78.5933823 532.257407,81.2043823 528.525407,97.0933823 C525.618407,109.469382 525.440407,111.857382 527.065407,116.694382 C528.643407,121.395382 530.633407,123.426382 534.915407,124.709382 C538.035407,125.643382 539.182407,125.502382 542.597407,123.759382 C544.806407,122.633382 548.001407,120.129382 549.698407,118.196382 L552.784407,114.682382 L553.427407,117.611382 C553.781407,119.221382 555.421407,121.676382 557.073407,123.066382 C564.147407,129.018382 575.793407,124.289382 586.063407,111.296382 L589.923407,106.413382 L589.923407,110.035382 C589.923407,118.084382 594.270407,123.540382 601.316407,124.334382 C606.839407,124.956382 610.954407,122.666382 617.253407,115.466382 L621.610407,110.485382 L623.284407,114.869382 C625.961407,121.877382 629.823407,124.886382 636.788407,125.390382 C644.261407,125.930382 648.214407,124.123382 656.483407,116.388382 L662.697407,110.575382 L663.359407,114.105382 C664.250407,118.854382 669.241407,124.374382 673.338407,125.143382 C677.841407,125.988382 682.515407,123.789382 688.059407,118.218382 L692.694407,113.559382 L693.346407,117.034382 C693.780407,119.347382 695.232407,121.526382 697.688407,123.551382 C704.838407,129.445382 712.770407,126.804382 724.073407,114.767382 C728.037407,110.547382 730.991407,107.768382 730.638407,108.593382 C720.337407,132.665382 716.069407,146.999382 715.304407,160.093382 C714.843407,167.985382 715.029407,169.490382 716.820407,172.316382 C719.128407,175.962382 722.960407,177.353382 726.388407,175.791382 C728.578407,174.793382 728.708407,174.195382 728.744407,164.914382 C728.807407,148.516382 732.599407,133.303382 743.154407,107.093382 C746.476407,98.8433823 751.158407,88.1643823 753.559407,83.3633823 C759.946407,70.5863823 759.194407,65.7573823 750.989407,66.8573823 C747.765407,67.2903823 746.681407,66.9653823 744.851407,65.0173823 C739.764407,59.6023823 730.458407,59.4793823 722.542407,64.7223823 C715.441407,69.4263823 705.837407,80.4933823 700.397407,90.2413823 C694.499407,100.812382 681.592407,114.593382 677.592407,114.593382 C672.318407,114.593382 673.355407,108.760382 682.973407,84.3193823 C687.435407,72.9823823 687.618407,69.5713823 683.873407,67.5663823 C679.292407,65.1153823 677.042407,68.1243823 669.443407,86.8713823 C666.814407,93.3573823 664.933407,96.0583823 658.121407,103.127382 C645.549407,116.175382 637.503407,118.909382 634.898407,111.018382 C633.115407,105.614382 634.462407,99.3133823 638.464407,94.3403823 C664.064407,62.5263823 678.923407,33.7973823 678.923407,16.1143823 C678.923407,10.4173823 678.642407,9.51738232 676.288407,7.66638232 C673.676407,5.61138232 670.277407,5.19038232 666.423407,6.44338232 M351.815407,64.3763823 C351.073407,66.3303823 350.592407,66.6763823 349.985407,65.6943823 C348.708407,63.6283823 339.656407,61.6383823 335.647407,62.5423823 C325.852407,64.7523823 313.848407,77.7323823 306.318407,94.2553823 C303.791407,99.7983823 301.144407,103.557382 296.484407,108.217382 C289.766407,114.935382 286.771407,116.046382 284.883407,112.519382 C283.546407,110.021382 285.755407,102.070382 292.611407,84.6953823 C297.413407,72.5293823 297.475407,70.0293823 293.032407,67.6513823 C289.615407,65.8233823 286.468407,69.9493823 280.963407,83.4743823 C278.191407,90.2833823 275.923407,96.3233823 275.923407,96.8963823 C275.923407,98.0073823 266.764407,108.939382 263.423407,111.815382 C260.474407,114.354382 257.803407,115.016382 256.830407,113.450382 C255.603407,111.476382 256.694407,105.758382 261.097407,91.0933823 C265.388407,76.8023823 265.441407,73.5233823 261.448407,69.2153823 C259.643407,67.2673823 258.042407,66.5953823 255.221407,66.6023823 C248.125407,66.6203823 240.539407,72.3783823 227.562407,87.5933823 C225.451407,90.0683823 224.034407,91.1933823 224.414407,90.0933823 C233.003407,65.1953823 236.339407,56.1393823 242.531407,40.9043823 C246.596407,30.9003823 249.923407,21.7883823 249.923407,20.6543823 C249.923407,17.6633823 246.390407,14.5933823 242.949407,14.5933823 C239.422407,14.5933823 239.489407,14.4793823 231.154407,34.5933823 C224.196407,51.3853823 217.244407,70.2773823 212.063407,86.4743823 C209.792074,93.5757157 207.078741,102.871049 203.923407,114.360382 L203.923407,117.822382 C203.923407,122.396382 206.458407,124.593382 211.737407,124.593382 C215.829407,124.593382 215.944407,124.495382 219.016407,118.408382 C227.699407,101.207382 239.322407,85.7043823 246.846407,81.2863823 C249.883407,79.5033823 249.923407,79.5073823 249.923407,81.6053823 C249.923407,82.7743823 248.824407,88.0873823 247.480407,93.4123823 C242.944407,111.389382 242.939407,116.081382 247.450407,121.442382 C252.503407,127.448382 259.779407,126.734382 267.448407,119.481382 L272.599407,114.610382 L275.011407,118.307382 C280.751407,127.107382 287.554407,127.524382 296.215407,119.609382 L301.586407,114.701382 L303.371407,118.746382 C306.278407,125.336382 313.190407,126.940382 321.233407,122.894382 C325.346407,120.824382 331.258407,115.213382 337.196407,107.743382 L342.423407,101.168382 L343.047407,108.809382 C343.828407,118.369382 346.411407,123.060382 351.782407,124.669382 C358.238407,126.603382 363.123407,124.521382 371.578407,116.229382 C379.091407,108.861382 380.111407,106.600382 377.524407,103.061382 C376.199407,101.250382 375.717407,101.535382 368.521407,108.370382 C357.992407,118.371382 354.923407,118.202382 354.923407,107.622382 C354.923407,92.2943823 361.761407,71.0993823 377.629407,37.2403823 C385.962407,19.4603823 386.370407,18.0403823 383.869407,15.5393823 C381.446407,13.1163823 376.751407,13.0213823 374.641407,15.3523823 C372.290407,17.9493823 356.897407,51.0113823 351.815407,64.3763823 Z M662.229407,23.8973823 C656.614407,30.2933823 645.365407,54.6553823 640.021407,71.9953823 C638.851407,75.7913823 638.075407,79.0793823 638.297407,79.3003823 C638.911407,79.9143823 645.156407,71.9263823 650.232407,64.0353823 C656.222407,54.7223823 663.322407,40.4283823 665.320407,33.6613823 C667.067407,27.7423823 667.454407,20.5933823 666.027407,20.5933823 C665.534407,20.5933823 663.825407,22.0803823 662.229407,23.8973823 M297.877407,39.8753823 C295.116407,42.0503823 292.923407,45.9763823 292.923407,48.7433823 C292.923407,51.6813823 296.921407,55.5933823 299.923407,55.5933823 C302.866407,55.5933823 306.818407,51.6763823 308.061407,47.5263823 C309.150407,43.8913823 309.056407,43.3643823 306.911407,41.0803823 C304.394407,38.4003823 300.421407,37.8703823 297.877407,39.8753823 M686.936407,41.3433823 C683.005407,44.9243823 682.112407,49.3703823 684.685407,52.5473823 C687.584407,56.1283823 692.470407,55.7833823 696.079407,51.7443823 C703.512407,43.4253823 695.124407,33.8833823 686.936407,41.3433823 M590.106407,73.2733823 C578.514407,78.9863823 564.923407,99.4493823 564.923407,111.191382 C564.923407,115.306382 566.106407,116.068382 569.644407,114.232382 C578.890407,109.432382 601.544407,78.2583823 599.554407,73.0733823 C598.807407,71.1263823 594.267407,71.2233823 590.106407,73.2733823 M727.608407,74.6783823 C718.358407,80.8053823 706.134407,100.341382 705.151407,110.567382 C704.614407,116.158382 705.708407,117.273382 709.704407,115.206382 C715.853407,112.026382 735.476407,88.6433823 740.293407,78.7563823 C742.375407,74.4823823 742.378407,74.3993823 740.473407,73.0063823 C737.345407,70.7193823 732.668407,71.3263823 727.608407,74.6783823 M333.563407,76.7083823 C323.941407,83.0813823 312.477407,103.697382 314.367407,111.227382 C316.084407,118.066382 325.397407,109.852382 338.688407,89.7743823 C345.409407,79.6233823 346.067407,78.2053823 345.074407,76.0243823 C343.520407,72.6143823 339.373407,72.8603823 333.563407,76.7083823" id="Shape"></path>
        </g>
    </g>
</svg>